<svg width="450" height="300" viewBox="0 0 450 300" xmlns="http://www.w3.org/2000/svg">
  <rect width="450" height="300" fill="white" />
  <style>
    .axis { stroke: black; stroke-width: 2; fill: none; }
    .grid { stroke: #e0e0e0; stroke-width: 1; stroke-dasharray: 3; }
    .label { font-family: Arial, Helvetica, sans-serif; font-size: 11px; fill: black; }
    .value { font-family: Arial, Helvetica, sans-serif; font-size: 10px; fill: black; font-weight: bold; }
    .title { font-family: Arial, Helvetica, sans-serif; font-size: 14px; fill: black; font-weight: bold; }
  </style>
  <line x1="50" y1="240" x2="430" y2="240" class="grid" />
  <text x="45" y="244" class="label" text-anchor="end">0</text>
  <line x1="50" y1="208.5" x2="430" y2="208.5" class="grid" />
  <text x="45" y="212.5" class="label" text-anchor="end">3</text>
  <line x1="50" y1="177" x2="430" y2="177" class="grid" />
  <text x="45" y="181" class="label" text-anchor="end">6</text>
  <line x1="50" y1="145.5" x2="430" y2="145.5" class="grid" />
  <text x="45" y="149.5" class="label" text-anchor="end">9</text>
  <line x1="50" y1="114" x2="430" y2="114" class="grid" />
  <text x="45" y="118" class="label" text-anchor="end">12</text>
  <line x1="50" y1="82.5" x2="430" y2="82.5" class="grid" />
  <text x="45" y="86.5" class="label" text-anchor="end">15</text>
  <line x1="50" y1="51" x2="430" y2="51" class="grid" />
  <text x="45" y="55" class="label" text-anchor="end">18</text>
  <line x1="50" y1="30" x2="430" y2="30" class="grid" />
  <text x="45" y="34" class="label" text-anchor="end">20</text>
  <line x1="50" y1="30" x2="50" y2="240" class="axis" />
  <line x1="50" y1="240" x2="430" y2="240" class="axis" />
  <path d="M 47,40 L 50,30 L 53,40" class="axis" />
  <path d="M 420,237 L 430,240 L 420,243" class="axis" />
  <rect x="67.5" y="135" width="30" height="105" fill="#1a1a1a" />
  <text x="82.5" y="132" class="value" text-anchor="middle">10</text>
  <rect x="97.5" y="93" width="30" height="147" fill="#a0a0a0" />
  <text x="112.5" y="90" class="value" text-anchor="middle">14</text>
  <text x="97.5" y="255" class="label" text-anchor="middle">Televisores</text>
  <rect x="162.5" y="187.5" width="30" height="52.5" fill="#1a1a1a" />
  <text x="177.5" y="184.5" class="value" text-anchor="middle">5</text>
  <rect x="192.5" y="51" width="30" height="189" fill="#a0a0a0" />
  <text x="207.5" y="48" class="value" text-anchor="middle">18</text>
  <text x="192.5" y="255" class="label" text-anchor="middle">Computadores</text>
  <rect x="257.5" y="166.5" width="30" height="73.5" fill="#1a1a1a" />
  <text x="272.5" y="163.5" class="value" text-anchor="middle">7</text>
  <rect x="287.5" y="124.49999999999999" width="30" height="115.50000000000001" fill="#a0a0a0" />
  <text x="302.5" y="121.49999999999999" class="value" text-anchor="middle">11</text>
  <text x="287.5" y="255" class="label" text-anchor="middle">Licuadoras</text>
  <rect x="352.5" y="114" width="30" height="126" fill="#1a1a1a" />
  <text x="367.5" y="111" class="value" text-anchor="middle">12</text>
  <rect x="382.5" y="145.5" width="30" height="94.5" fill="#a0a0a0" />
  <text x="397.5" y="142.5" class="value" text-anchor="middle">9</text>
  <text x="382.5" y="255" class="label" text-anchor="middle">Planchas</text>
  <rect x="50" y="276" width="10" height="10" fill="#1a1a1a" />
  <text x="64" y="285" class="label">Unidades en el almacén 1</text>
  <rect x="240" y="276" width="10" height="10" fill="#a0a0a0" />
  <text x="254" y="285" class="label">Unidades en el almacén 2</text>
</svg>
