<svg width="450" height="300" viewBox="0 0 450 300" xmlns="http://www.w3.org/2000/svg">
  <rect width="450" height="300" fill="white" />
  <style>
    .axis { stroke: black; stroke-width: 2; fill: none; }
    .grid { stroke: #e0e0e0; stroke-width: 1; stroke-dasharray: 3; }
    .label { font-family: Arial, Helvetica, sans-serif; font-size: 11px; fill: black; }
    .value { font-family: Arial, Helvetica, sans-serif; font-size: 10px; fill: black; font-weight: bold; }
    .title { font-family: Arial, Helvetica, sans-serif; font-size: 14px; fill: black; font-weight: bold; }
  </style>
  <line x1="50" y1="240" x2="430" y2="240" class="grid" />
  <text x="45" y="244" class="label" text-anchor="end">0</text>
  <line x1="50" y1="206.4" x2="430" y2="206.4" class="grid" />
  <text x="45" y="210.4" class="label" text-anchor="end">4</text>
  <line x1="50" y1="172.8" x2="430" y2="172.8" class="grid" />
  <text x="45" y="176.8" class="label" text-anchor="end">8</text>
  <line x1="50" y1="139.2" x2="430" y2="139.2" class="grid" />
  <text x="45" y="143.2" class="label" text-anchor="end">12</text>
  <line x1="50" y1="105.6" x2="430" y2="105.6" class="grid" />
  <text x="45" y="109.6" class="label" text-anchor="end">16</text>
  <line x1="50" y1="72" x2="430" y2="72" class="grid" />
  <text x="45" y="76" class="label" text-anchor="end">20</text>
  <line x1="50" y1="38.400000000000006" x2="430" y2="38.400000000000006" class="grid" />
  <text x="45" y="42.400000000000006" class="label" text-anchor="end">24</text>
  <line x1="50" y1="30" x2="430" y2="30" class="grid" />
  <text x="45" y="34" class="label" text-anchor="end">25</text>
  <line x1="50" y1="30" x2="50" y2="240" class="axis" />
  <line x1="50" y1="240" x2="430" y2="240" class="axis" />
  <path d="M 47,40 L 50,30 L 53,40" class="axis" />
  <path d="M 420,237 L 430,240 L 420,243" class="axis" />
  <rect x="67.5" y="156" width="30" height="84" fill="#1a1a1a" />
  <text x="82.5" y="153" class="value" text-anchor="middle">10</text>
  <rect x="97.5" y="38.400000000000006" width="30" height="201.6" fill="#a0a0a0" />
  <text x="112.5" y="35.400000000000006" class="value" text-anchor="middle">24</text>
  <text x="97.5" y="255" class="label" text-anchor="middle">Televisores</text>
  <rect x="162.5" y="198" width="30" height="42" fill="#1a1a1a" />
  <text x="177.5" y="195" class="value" text-anchor="middle">5</text>
  <rect x="192.5" y="46.79999999999998" width="30" height="193.20000000000002" fill="#a0a0a0" />
  <text x="207.5" y="43.79999999999998" class="value" text-anchor="middle">23</text>
  <text x="192.5" y="255" class="label" text-anchor="middle">Computadores</text>
  <rect x="257.5" y="181.2" width="30" height="58.800000000000004" fill="#1a1a1a" />
  <text x="272.5" y="178.2" class="value" text-anchor="middle">7</text>
  <rect x="287.5" y="88.80000000000001" width="30" height="151.2" fill="#a0a0a0" />
  <text x="302.5" y="85.80000000000001" class="value" text-anchor="middle">18</text>
  <text x="287.5" y="255" class="label" text-anchor="middle">Licuadoras</text>
  <rect x="352.5" y="139.2" width="30" height="100.8" fill="#1a1a1a" />
  <text x="367.5" y="136.2" class="value" text-anchor="middle">12</text>
  <rect x="382.5" y="63.599999999999994" width="30" height="176.4" fill="#a0a0a0" />
  <text x="397.5" y="60.599999999999994" class="value" text-anchor="middle">21</text>
  <text x="382.5" y="255" class="label" text-anchor="middle">Planchas</text>
  <rect x="50" y="276" width="10" height="10" fill="#1a1a1a" />
  <text x="64" y="285" class="label">Unidades en el almacén 1</text>
  <rect x="240" y="276" width="10" height="10" fill="#a0a0a0" />
  <text x="254" y="285" class="label">Unidades en el almacén 2</text>
</svg>
