<svg width="400" height="250" viewBox="0 0 400 250" xmlns="http://www.w3.org/2000/svg">
  <rect width="400" height="250" fill="white" />
  <!-- Ground -->
  <line x1="20" y1="200" x2="380" y2="200" stroke="#334155" stroke-width="2" />
  
  <!-- Camión -->
  <rect x="50" y="100" width="80" height="100" fill="#94a3b8" rx="5" />
  <circle cx="70" cy="200" r="10" fill="#1e293b" />
  <circle cx="110" cy="200" r="10" fill="#1e293b" />
  
  <!-- Rampa -->
  <line x1="130" y1="130" x2="280" y2="200" stroke="#6366f1" stroke-width="4" />
  <text x="180" y="150" font-family="Arial" font-size="12" fill="#6366f1">4 m</text>
  
  <!-- Bandera -->
  <line x1="280" y1="200" x2="280" y2="160" stroke="#334155" stroke-width="2" />
  <path d="M 280 160 L 305 170 L 280 180 Z" fill="#ef4444" />
  
  <!-- Angle 30 -->
  <path d="M 250 200 A 30 30 0 0 0 265 193" fill="none" stroke="#ef4444" stroke-width="2" />
  <text x="220" y="195" font-family="Arial" font-size="12" fill="#ef4444">30°</text>
  
  <!-- Distance L label -->
  <line x1="130" y1="215" x2="280" y2="215" stroke="#64748b" stroke-width="1" />
  <line x1="130" y1="210" x2="130" y2="220" stroke="#64748b" stroke-width="1" />
  <line x1="280" y1="210" x2="280" y2="220" stroke="#64748b" stroke-width="1" />
  <text x="200" y="235" font-family="Arial" font-size="14" font-weight="bold">L</text>
</svg>