<svg width="450" height="300" viewBox="0 0 450 300" xmlns="http://www.w3.org/2000/svg">
  <rect width="450" height="300" fill="white" />
  <style>
    .axis { stroke: black; stroke-width: 2; fill: none; }
    .grid { stroke: #e0e0e0; stroke-width: 1; stroke-dasharray: 3; }
    .label { font-family: Arial, Helvetica, sans-serif; font-size: 11px; fill: black; }
    .value { font-family: Arial, Helvetica, sans-serif; font-size: 10px; fill: black; font-weight: bold; }
    .title { font-family: Arial, Helvetica, sans-serif; font-size: 14px; fill: black; font-weight: bold; }
  </style>
  <line x1="50" y1="240" x2="430" y2="240" class="grid" />
  <text x="45" y="244" class="label" text-anchor="end">0</text>
  <line x1="50" y1="213.75" x2="430" y2="213.75" class="grid" />
  <text x="45" y="217.75" class="label" text-anchor="end">2.500</text>
  <line x1="50" y1="187.5" x2="430" y2="187.5" class="grid" />
  <text x="45" y="191.5" class="label" text-anchor="end">5.000</text>
  <line x1="50" y1="161.25" x2="430" y2="161.25" class="grid" />
  <text x="45" y="165.25" class="label" text-anchor="end">7.500</text>
  <line x1="50" y1="135" x2="430" y2="135" class="grid" />
  <text x="45" y="139" class="label" text-anchor="end">10.000</text>
  <line x1="50" y1="108.75" x2="430" y2="108.75" class="grid" />
  <text x="45" y="112.75" class="label" text-anchor="end">12.500</text>
  <line x1="50" y1="82.5" x2="430" y2="82.5" class="grid" />
  <text x="45" y="86.5" class="label" text-anchor="end">15.000</text>
  <line x1="50" y1="56.25" x2="430" y2="56.25" class="grid" />
  <text x="45" y="60.25" class="label" text-anchor="end">17.500</text>
  <line x1="50" y1="30" x2="430" y2="30" class="grid" />
  <text x="45" y="34" class="label" text-anchor="end">20.000</text>
  <line x1="50" y1="30" x2="50" y2="240" class="axis" />
  <line x1="50" y1="240" x2="430" y2="240" class="axis" />
  <path d="M 47,40 L 50,30 L 53,40" class="axis" />
  <path d="M 420,237 L 430,240 L 420,243" class="axis" />
  <rect x="60.55555555555556" y="105.81" width="21.11111111111111" height="134.19" fill="#1a1a1a" />
  <text x="71.11111111111111" y="102.81" class="value" text-anchor="middle">12.780</text>
  <rect x="81.66666666666667" y="183.3" width="21.11111111111111" height="56.7" fill="#a0a0a0" />
  <text x="92.22222222222223" y="180.3" class="value" text-anchor="middle">5.400</text>
  <text x="81.66666666666667" y="255" class="label" text-anchor="middle">Enero</text>
  <rect x="123.8888888888889" y="80.4" width="21.11111111111111" height="159.6" fill="#1a1a1a" />
  <text x="134.44444444444446" y="77.4" class="value" text-anchor="middle">15.200</text>
  <rect x="145" y="188.5185" width="21.11111111111111" height="51.481500000000004" fill="#a0a0a0" />
  <text x="155.55555555555554" y="185.5185" class="value" text-anchor="middle">4.903</text>
  <text x="145" y="255" class="label" text-anchor="middle">Febrero</text>
  <rect x="187.22222222222223" y="129.75" width="21.11111111111111" height="110.25" fill="#1a1a1a" />
  <text x="197.77777777777777" y="126.75" class="value" text-anchor="middle">10.500</text>
  <rect x="208.33333333333334" y="163.875" width="21.11111111111111" height="76.125" fill="#a0a0a0" />
  <text x="218.88888888888889" y="160.875" class="value" text-anchor="middle">7.250</text>
  <text x="208.33333333333334" y="255" class="label" text-anchor="middle">Marzo</text>
  <rect x="250.55555555555554" y="96.14999999999998" width="21.11111111111111" height="143.85000000000002" fill="#1a1a1a" />
  <text x="261.1111111111111" y="93.14999999999998" class="value" text-anchor="middle">13.700</text>
  <rect x="271.66666666666663" y="203.25" width="21.11111111111111" height="36.75" fill="#a0a0a0" />
  <text x="282.2222222222222" y="200.25" class="value" text-anchor="middle">3.500</text>
  <text x="271.6666666666667" y="255" class="label" text-anchor="middle">Abril</text>
  <rect x="313.8888888888889" y="135" width="21.11111111111111" height="105" fill="#1a1a1a" />
  <text x="324.44444444444446" y="132" class="value" text-anchor="middle">10.000</text>
  <rect x="335" y="196.9185" width="21.11111111111111" height="43.0815" fill="#a0a0a0" />
  <text x="345.55555555555554" y="193.9185" class="value" text-anchor="middle">4.103</text>
  <text x="335.00000000000006" y="255" class="label" text-anchor="middle">Mayo</text>
  <rect x="377.22222222222223" y="117.675" width="21.11111111111111" height="122.325" fill="#1a1a1a" />
  <text x="387.77777777777777" y="114.675" class="value" text-anchor="middle">11.650</text>
  <rect x="398.3333333333333" y="174.58499999999998" width="21.11111111111111" height="65.415" fill="#a0a0a0" />
  <text x="408.88888888888886" y="171.58499999999998" class="value" text-anchor="middle">6.230</text>
  <text x="398.33333333333337" y="255" class="label" text-anchor="middle">Junio</text>
  <rect x="50" y="276" width="10" height="10" fill="#1a1a1a" />
  <text x="64" y="285" class="label">Ingresos</text>
  <rect x="240" y="276" width="10" height="10" fill="#a0a0a0" />
  <text x="254" y="285" class="label">Gastos</text>
</svg>
