<svg width="400" height="300" viewBox="0 0 400 300" xmlns="http://www.w3.org/2000/svg">
  <rect width="400" height="300" fill="white" />
  <style>
    .label { font-family: Arial, Helvetica, sans-serif; font-size: 11px; fill: black; }
    .pct   { font-family: Arial, Helvetica, sans-serif; font-size: 11px; font-weight: bold; }
  </style>
  <path d="M 152 150 L 152.00 20.00 A 130 130 0 0 1 282.00 150.00 Z" fill="#262626" stroke="white" stroke-width="1" />
  <text x="211.8" y="94.2" class="pct" text-anchor="middle" fill="white">25 %</text>
  <path d="M 152 150 L 282.00 150.00 A 130 130 0 0 1 192.17 273.64 Z" fill="#525252" stroke="white" stroke-width="1" />
  <text x="220.4" y="203.7" class="pct" text-anchor="middle" fill="white">20 %</text>
  <path d="M 152 150 L 192.17 273.64 A 130 130 0 0 1 28.36 190.17 Z" fill="#737373" stroke="white" stroke-width="1" />
  <text x="113.6" y="229.3" class="pct" text-anchor="middle" fill="white">25 %</text>
  <path d="M 152 150 L 28.36 190.17 A 130 130 0 0 1 28.36 109.83 Z" fill="#a3a3a3" stroke="white" stroke-width="1" />
  <text x="67.5" y="154.0" class="pct" text-anchor="middle" fill="black">10 %</text>
  <path d="M 152 150 L 28.36 109.83 A 130 130 0 0 1 152.00 20.00 Z" fill="#d4d4d4" stroke="white" stroke-width="1" />
  <text x="102.3" y="85.6" class="pct" text-anchor="middle" fill="black">20 %</text>
  <rect x="312" y="87.5" width="12" height="12" fill="#262626" />
  <text x="330" y="98.5" class="label">Insatisfecho</text>
  <rect x="312" y="112.5" width="12" height="12" fill="#525252" />
  <text x="330" y="123.5" class="label">Poco satisfecho</text>
  <rect x="312" y="137.5" width="12" height="12" fill="#737373" />
  <text x="330" y="148.5" class="label">Conforme</text>
  <rect x="312" y="162.5" width="12" height="12" fill="#a3a3a3" />
  <text x="330" y="173.5" class="label">Satisfecho</text>
  <rect x="312" y="187.5" width="12" height="12" fill="#d4d4d4" />
  <text x="330" y="198.5" class="label">Muy satisfecho</text>
</svg>
