<svg width="450" height="300" viewBox="0 0 450 300" xmlns="http://www.w3.org/2000/svg">
  <rect width="450" height="300" fill="white" />
  <style>
    .axis { stroke: black; stroke-width: 2; fill: none; }
    .grid { stroke: #e0e0e0; stroke-width: 1; stroke-dasharray: 3; }
    .label { font-family: Arial, Helvetica, sans-serif; font-size: 11px; fill: black; }
    .value { font-family: Arial, Helvetica, sans-serif; font-size: 10px; fill: black; font-weight: bold; }
    .title { font-family: Arial, Helvetica, sans-serif; font-size: 14px; fill: black; font-weight: bold; }
  </style>
  <line x1="50" y1="240" x2="430" y2="240" class="grid" />
  <text x="45" y="244" class="label" text-anchor="end">0</text>
  <line x1="50" y1="213.75" x2="430" y2="213.75" class="grid" />
  <text x="45" y="217.75" class="label" text-anchor="end">3.125</text>
  <line x1="50" y1="187.5" x2="430" y2="187.5" class="grid" />
  <text x="45" y="191.5" class="label" text-anchor="end">6.250</text>
  <line x1="50" y1="161.25" x2="430" y2="161.25" class="grid" />
  <text x="45" y="165.25" class="label" text-anchor="end">9.375</text>
  <line x1="50" y1="135" x2="430" y2="135" class="grid" />
  <text x="45" y="139" class="label" text-anchor="end">12.500</text>
  <line x1="50" y1="108.75" x2="430" y2="108.75" class="grid" />
  <text x="45" y="112.75" class="label" text-anchor="end">15.625</text>
  <line x1="50" y1="82.5" x2="430" y2="82.5" class="grid" />
  <text x="45" y="86.5" class="label" text-anchor="end">18.750</text>
  <line x1="50" y1="56.25" x2="430" y2="56.25" class="grid" />
  <text x="45" y="60.25" class="label" text-anchor="end">21.875</text>
  <line x1="50" y1="30" x2="430" y2="30" class="grid" />
  <text x="45" y="34" class="label" text-anchor="end">25.000</text>
  <line x1="50" y1="30" x2="50" y2="240" class="axis" />
  <line x1="50" y1="240" x2="430" y2="240" class="axis" />
  <path d="M 47,40 L 50,30 L 53,40" class="axis" />
  <path d="M 420,237 L 430,240 L 420,243" class="axis" />
  <rect x="66.66666666666667" y="87.28800000000001" width="30" height="152.712" fill="#1a1a1a" />
  <text x="81.66666666666667" y="84.28800000000001" class="value" text-anchor="middle">18.180</text>
  <text x="81.66666666666667" y="255" class="label" text-anchor="middle">Enero</text>
  <rect x="130" y="71.13480000000001" width="30" height="168.8652" fill="#1a1a1a" />
  <text x="145" y="68.13480000000001" class="value" text-anchor="middle">20.103</text>
  <text x="145" y="255" class="label" text-anchor="middle">Febrero</text>
  <rect x="193.33333333333334" y="90.9" width="30" height="149.1" fill="#1a1a1a" />
  <text x="208.33333333333334" y="87.9" class="value" text-anchor="middle">17.750</text>
  <text x="208.33333333333334" y="255" class="label" text-anchor="middle">Marzo</text>
  <rect x="256.6666666666667" y="95.52000000000001" width="30" height="144.48" fill="#1a1a1a" />
  <text x="271.6666666666667" y="92.52000000000001" class="value" text-anchor="middle">17.200</text>
  <text x="271.6666666666667" y="255" class="label" text-anchor="middle">Abril</text>
  <rect x="320.00000000000006" y="121.5348" width="30" height="118.4652" fill="#1a1a1a" />
  <text x="335.00000000000006" y="118.5348" class="value" text-anchor="middle">14.103</text>
  <text x="335.00000000000006" y="255" class="label" text-anchor="middle">Mayo</text>
  <rect x="383.33333333333337" y="89.80800000000002" width="30" height="150.19199999999998" fill="#1a1a1a" />
  <text x="398.33333333333337" y="86.80800000000002" class="value" text-anchor="middle">17.880</text>
  <text x="398.33333333333337" y="255" class="label" text-anchor="middle">Junio</text>
  <rect x="50" y="276" width="10" height="10" fill="#1a1a1a" />
  <text x="64" y="285" class="label">Total</text>
</svg>
