<svg xmlns="http://www.w3.org/2000/svg" viewBox="0 0 500 250" width="100%" height="100%">
  <!-- Tortas principales -->
  <rect x="50" y="50" width="400" height="150" fill="#fcfcfc" stroke="black" stroke-width="2"/>
  <!-- Línea central horizontal -->
  <line x1="50" y1="125" x2="450" y2="125" stroke="black" stroke-width="1" stroke-dasharray="8,4"/>
  <!-- Líneas verticales -->
  <line x1="350" y1="50" x2="350" y2="200" stroke="black" stroke-width="1" stroke-dasharray="8,4"/>
  <line x1="250" y1="50" x2="250" y2="200" stroke="black" stroke-width="1" stroke-dasharray="8,4"/>
  <line x1="216.7" y1="50" x2="216.7" y2="200" stroke="black" stroke-width="1" stroke-dasharray="8,4"/>
  
  <!-- Texturas (patrón rústico de la imagen) -->
  <g fill="none" stroke="#ddd" stroke-width="1">
     <path d="M60,60 Q80,70 100,55 T150,80 T200,60" />
     <path d="M70,160 Q90,170 120,150 T180,180" />
     <path d="M260,80 Q280,60 300,90 T340,70" />
     <path d="M370,140 Q390,120 420,150" />
     <path d="M220,180 Q230,190 240,170" />
  </g>
  
  <!-- Labels for pieces -->
  <text x="133" y="95" font-family="sans-serif" font-size="16" font-weight="bold" text-anchor="middle">2</text>
  <text x="233" y="95" font-family="sans-serif" font-size="16" font-weight="bold" text-anchor="middle">6</text>
  <text x="300" y="95" font-family="sans-serif" font-size="16" font-weight="bold" text-anchor="middle">5</text>
  <text x="400" y="95" font-family="sans-serif" font-size="16" font-weight="bold" text-anchor="middle">1</text>

  <text x="133" y="170" font-family="sans-serif" font-size="16" font-weight="bold" text-anchor="middle">3</text>
  <text x="233" y="170" font-family="sans-serif" font-size="16" font-weight="bold" text-anchor="middle">7</text>
  <text x="300" y="170" font-family="sans-serif" font-size="16" font-weight="bold" text-anchor="middle">8</text>
  <text x="400" y="170" font-family="sans-serif" font-size="16" font-weight="bold" text-anchor="middle">4</text>
  
  <!-- Dimensions -->
  <line x1="465" y1="125" x2="465" y2="200" stroke="black" stroke-width="1"/>
  <polygon points="465,125 462,130 468,130" fill="black"/>
  <polygon points="465,200 462,195 468,195" fill="black"/>
  <text x="475" y="167" font-family="sans-serif" font-size="12">10 cm</text>
  
  <line x1="250" y1="215" x2="450" y2="215" stroke="black" stroke-width="1"/>
  <polygon points="250,215 255,212 255,218" fill="black"/>
  <polygon points="450,215 445,212 445,218" fill="black"/>
  <text x="350" y="230" font-family="sans-serif" font-size="12" text-anchor="middle">30 cm</text>
  
  <line x1="250" y1="110" x2="350" y2="110" stroke="black" stroke-width="1"/>
  <polygon points="250,110 255,107 255,113" fill="black"/>
  <polygon points="350,110 345,107 345,113" fill="black"/>
  <text x="300" y="105" font-family="sans-serif" font-size="11" text-anchor="middle" font-weight="bold">15 cm</text>

  <line x1="216.7" y1="110" x2="250" y2="110" stroke="black" stroke-width="1"/>
  <polygon points="216.7,110 219.7,107 219.7,113" fill="black"/>
  <polygon points="250,110 247,107 247,113" fill="black"/>
  <text x="233" y="105" font-family="sans-serif" font-size="11" text-anchor="middle" font-weight="bold">5 cm</text>
</svg>