<svg xmlns="http://www.w3.org/2000/svg" viewBox="0 0 400 320" width="100%" height="100%">
  <!-- Ejes -->
  <line x1="60" y1="260" x2="380" y2="260" stroke="black" stroke-width="2"/>
  <line x1="60" y1="260" x2="60" y2="20" stroke="black" stroke-width="2"/>
  
  <!-- Etiquetas Eje Y -->
  <text x="50" y="265" font-family="sans-serif" font-size="12" text-anchor="end">0</text>
  <text x="50" y="220" font-family="sans-serif" font-size="12" text-anchor="end">500</text>
  <text x="50" y="175" font-family="sans-serif" font-size="12" text-anchor="end">1.000</text>
  <text x="50" y="130" font-family="sans-serif" font-size="12" text-anchor="end">1.500</text>
  <text x="50" y="85" font-family="sans-serif" font-size="12" text-anchor="end">2.000</text>
  <text x="50" y="40" font-family="sans-serif" font-size="12" text-anchor="end">2.500</text>
  
  <!-- Cuadricula opcional -->
  <line x1="60" y1="220" x2="380" y2="220" stroke="#eee" stroke-width="1"/>
  <line x1="60" y1="175" x2="380" y2="175" stroke="#eee" stroke-width="1"/>
  <line x1="60" y1="130" x2="380" y2="130" stroke="#eee" stroke-width="1"/>
  <line x1="60" y1="85" x2="380" y2="85" stroke="#eee" stroke-width="1"/>
  <line x1="60" y1="40" x2="380" y2="40" stroke="#eee" stroke-width="1"/>
  
  <!-- Ticks X -->
  <line x1="70" y1="260" x2="70" y2="265" stroke="black" stroke-width="1"/>
  <line x1="120" y1="260" x2="120" y2="265" stroke="black" stroke-width="1"/>
  <line x1="170" y1="260" x2="170" y2="265" stroke="black" stroke-width="1"/>
  <line x1="220" y1="260" x2="220" y2="265" stroke="black" stroke-width="1"/>
  <line x1="270" y1="260" x2="270" y2="265" stroke="black" stroke-width="1"/>
  <line x1="320" y1="260" x2="320" y2="265" stroke="black" stroke-width="1"/>
  <line x1="370" y1="260" x2="370" y2="265" stroke="black" stroke-width="1"/>

  <!-- Etiquetas Eje X (24 a 30) -->
  <text x="70" y="280" font-family="sans-serif" font-size="12" text-anchor="middle">24</text>
  <text x="120" y="280" font-family="sans-serif" font-size="12" text-anchor="middle">25</text>
  <text x="170" y="280" font-family="sans-serif" font-size="12" text-anchor="middle">26</text>
  <text x="220" y="280" font-family="sans-serif" font-size="12" text-anchor="middle">27</text>
  <text x="270" y="280" font-family="sans-serif" font-size="12" text-anchor="middle">28</text>
  <text x="320" y="280" font-family="sans-serif" font-size="12" text-anchor="middle">29</text>
  <text x="370" y="280" font-family="sans-serif" font-size="12" text-anchor="middle">30</text>
  
  <!-- Liena Horizontal (y=2000 -> 85) empezando desde x=24 hasta 30 -->
  <line x1="70" y1="85" x2="370" y2="85" stroke="black" stroke-width="3"/>
  
  <!-- Nombres de Ejes -->
  <text x="15" y="145" font-family="sans-serif" font-size="14" font-weight="bold" text-anchor="middle" transform="rotate(-90 15 145)">Cantidad de peces</text>
  <text x="220" y="310" font-family="sans-serif" font-size="14" font-weight="bold" text-anchor="middle">Temperatura (°C)</text>
</svg>