<svg xmlns="http://www.w3.org/2000/svg" viewBox="0 0 500 350" width="100%" height="100%">
  <defs>
    <!-- Pattern for Candidate E: Dots -->
    <pattern id="patE" width="12" height="12" patternUnits="userSpaceOnUse">
      <rect width="12" height="12" fill="#fff" />
      <circle cx="3" cy="3" r="2.5" fill="#aaa" />
      <circle cx="9" cy="9" r="2.5" fill="#aaa" />
    </pattern>
    <!-- Pattern for Candidate I: Diagonal Stripes -->
    <pattern id="patI" width="10" height="10" patternTransform="rotate(-45 0 0)" patternUnits="userSpaceOnUse">
      <rect width="10" height="10" fill="#222" />
      <line x1="0" y1="0" x2="0" y2="10" stroke="#fff" stroke-width="2" />
    </pattern>
    <!-- Pattern for Candidate H: Checkered (Squares) -->
    <pattern id="patH" width="16" height="16" patternUnits="userSpaceOnUse">
      <rect width="16" height="16" fill="#fff" />
      <rect width="8" height="8" fill="#333" />
      <rect x="8" y="8" width="8" height="8" fill="#333" />
    </pattern>
  </defs>

  <g transform="translate(250, 175)">
    <path d="M 0,0 L 7.34788079488412e-15,-120 A 120,120 0 0,1 65.13997734082761,-100.78086798612357 Z" fill="url(#patE)" stroke="#fff" stroke-width="1.5" />
    <line x1="30.562228581607002" y1="-103.5854728430855" x2="130" y2="-110" stroke="#666" stroke-width="1.5" />
    <text x="135" y="-106" font-family="sans-serif" font-size="13" font-weight="bold" fill="#333" text-anchor="start">Candidato E</text>
    <path d="M 0,0 L 65.13997734082761,-100.78086798612357 A 120,120 0 0,1 119.97222023758691,-2.581931692346677 Z" fill="url(#patI)" stroke="#fff" stroke-width="1.5" />
    <line x1="94.29573292711443" y1="-52.65277534696824" x2="160" y2="10" stroke="#666" stroke-width="1.5" />
    <text x="165" y="14" font-family="sans-serif" font-size="13" font-weight="bold" fill="#333" text-anchor="start">Candidato I</text>
    <path d="M 0,0 L 119.97222023758691,-2.581931692346677 A 120,120 0 0,1 35.60553831281888,114.59601058263061 Z" fill="#888" stroke="#fff" stroke-width="1.5" />
    <line x1="87.646218372795" y1="63.10420275186377" x2="150" y2="110" stroke="#666" stroke-width="1.5" />
    <text x="155" y="114" font-family="sans-serif" font-size="13" font-weight="bold" fill="#333" text-anchor="start">Candidato G</text>
    <path d="M 0,0 L 35.60553831281888,114.59601058263061 A 120,120 0 0,1 -118.88740339743633,-16.302923462227426 Z" fill="url(#patH)" stroke="#fff" stroke-width="1.5" />
    <line x1="-69.81587210065943" y1="82.39990292970231" x2="-150" y2="80" stroke="#666" stroke-width="1.5" />
    <text x="-155" y="84" font-family="sans-serif" font-size="13" font-weight="bold" fill="#333" text-anchor="end">Candidato H</text>
    <path d="M 0,0 L -118.88740339743633,-16.302923462227426 A 120,120 0 0,1 -1.2862505274866738e-13,-120 Z" fill="#ddd" stroke="#fff" stroke-width="1.5" />
    <line x1="-70.99068896507309" y1="-81.38993844612644" x2="-150" y2="-80" stroke="#666" stroke-width="1.5" />
    <text x="-155" y="-76" font-family="sans-serif" font-size="13" font-weight="bold" fill="#333" text-anchor="end">Candidato F</text>

  </g>
</svg>