<svg width="150" height="200" viewBox="0 0 150 200" xmlns="http://www.w3.org/2000/svg">
    <rect width="150" height="200" fill="white" />
    <style>
        .axis { stroke: black; stroke-width: 2; }
        .label { font-family: Arial, sans-serif; font-size: 11px; font-weight: bold; }
        .tick { font-family: Arial, sans-serif; font-size: 10px; }
    </style>
    <!-- Y Axis -->
    <line x1="40" y1="20" x2="40" y2="160" class="axis"/>
    <!-- X Axis -->
    <line x1="40" y1="160" x2="130" y2="160" class="axis"/>
    <!-- Arrows -->
    <path d="M 37,25 L 40,20 L 43,25" />
    <path d="M 125,157 L 130,160 L 125,163" />
    <!-- Ticks -->
        <line x1="37" y1="160" x2="40" y2="160" class="axis" stroke-width="1"/>
    <text x="32" y="164" class="tick" text-anchor="end">0</text>
    <line x1="37" y1="136.66666666666666" x2="40" y2="136.66666666666666" class="axis" stroke-width="1"/>
    <text x="32" y="140.66666666666666" class="tick" text-anchor="end">10</text>
    <line x1="37" y1="113.33333333333334" x2="40" y2="113.33333333333334" class="axis" stroke-width="1"/>
    <text x="32" y="117.33333333333334" class="tick" text-anchor="end">20</text>
    <line x1="37" y1="90" x2="40" y2="90" class="axis" stroke-width="1"/>
    <text x="32" y="94" class="tick" text-anchor="end">30</text>
    <line x1="37" y1="66.66666666666667" x2="40" y2="66.66666666666667" class="axis" stroke-width="1"/>
    <text x="32" y="70.66666666666667" class="tick" text-anchor="end">40</text>
    <line x1="37" y1="43.33333333333333" x2="40" y2="43.33333333333333" class="axis" stroke-width="1"/>
    <text x="32" y="47.33333333333333" class="tick" text-anchor="end">50</text>
    <line x1="37" y1="20" x2="40" y2="20" class="axis" stroke-width="1"/>
    <text x="32" y="24" class="tick" text-anchor="end">60</text>
    <rect x="55" y="20" width="60" height="140" fill="#333" />
    <text x="85" y="175" class="label" text-anchor="middle">■ Vallenato</text>
    <text x="20" y="90" class="label" transform="rotate(-90 20,90)" text-anchor="middle">Total de estudiantes</text>
</svg>