<svg width="400" height="200" viewBox="0 0 400 200" xmlns="http://www.w3.org/2000/svg">
    <rect width="400" height="200" fill="white" />
    <g transform="translate(50, 20)">
        <defs>
            <pattern id="hatch" width="4" height="4" patternTransform="rotate(45 0 0)" patternUnits="userSpaceOnUse">
                <line x1="0" y1="0" x2="0" y2="4" stroke="black" stroke-width="1" />
            </pattern>
        </defs>
        <rect x="0" y="20" width="30" height="120" fill="url(#hatch)" stroke="black" stroke-width="2" />
        <line x1="30" y1="140" x2="280" y2="140" stroke="black" stroke-width="2" />
        <line x1="30" y1="20" x2="280" y2="140" stroke="black" stroke-width="3" />
        <line x1="30" y1="18" x2="282" y2="138" stroke="black" stroke-width="1" />

        <line x1="155" y1="80" x2="155" y2="140" stroke="black" stroke-width="2" />
        <text x="165" y="115" font-family="Arial" font-size="14" font-weight="bold">h</text>
        
        <text x="-10" y="85" font-family="Arial" font-size="14" font-weight="bold" text-anchor="end">3 m</text>

        <line x1="30" y1="165" x2="280" y2="165" stroke="black" stroke-width="1.5" />
        <line x1="30" y1="160" x2="30" y2="170" stroke="black" stroke-width="1.5" />
        <line x1="280" y1="160" x2="280" y2="170" stroke="black" stroke-width="1.5" />
        <text x="155" y="180" font-family="Arial" font-size="14" font-weight="bold" text-anchor="middle">4 m</text>

        <line x1="30" y1="150" x2="155" y2="150" stroke="black" stroke-width="1.5" />
        <line x1="30" y1="145" x2="30" y2="155" stroke="black" stroke-width="1.5" />
        <line x1="155" y1="145" x2="155" y2="155" stroke="black" stroke-width="1.5" />
        <text x="92" y="145" font-family="Arial" font-size="12" font-weight="bold" text-anchor="middle">2 m</text>
    </g>
</svg>